HIERARCHY
ROOT root
{
	OFFSET	0	13.1	24.9
	CHANNELS 6  Xposition Yposition Zposition Xrotation Yrotation Zrotation
	JOINT spine_1
	{
		OFFSET	0	9.99999	0
		CHANNELS 3  Xrotation Yrotation Zrotation
		JOINT spine_2
		{
			OFFSET	0	112	-10
			CHANNELS 3  Xrotation Yrotation Zrotation
			JOINT spine_3
			{
				OFFSET	0	206.5	19.3
				CHANNELS 3  Xrotation Yrotation Zrotation
				JOINT spine_4
				{
					OFFSET	0	110.4	14.6
					CHANNELS 3  Xrotation Yrotation Zrotation
					JOINT neck_1
					{
						OFFSET	0	71.8	-50.3
						CHANNELS 3  Xrotation Yrotation Zrotation
						JOINT neck_2
						{
							OFFSET	0	86.2	-25.8
							CHANNELS 3  Xrotation Yrotation Zrotation
							JOINT head_ee
							{
								OFFSET	0	179.8	-8.7
								CHANNELS 3  Xrotation Yrotation Zrotation
								End Site
								{
									OFFSET	1	0	0
								}
							}
						}
					}
					JOINT left_clavicle
					{
						OFFSET	-43.2	22.4	-70.8
						CHANNELS 3  Xrotation Yrotation Zrotation
						JOINT left_shoulder
						{
							OFFSET	-93.9	-5.79999	48.7
							CHANNELS 3  Xrotation Yrotation Zrotation
							JOINT left_elbow
							{
								OFFSET	-291.4	-30.8	15.2
								CHANNELS 3  Xrotation Yrotation Zrotation
								JOINT left_lowarm_twist
								{
									OFFSET	-110.7	-3.89999	13.6
									CHANNELS 3  Xrotation Yrotation Zrotation
									JOINT left_hand
									{
										OFFSET	-110.7	-3.89999	13.6
										CHANNELS 3  Xrotation Yrotation Zrotation
										JOINT left_ee
										{
											OFFSET	-80.8	-5.10001	12.1
											CHANNELS 3  Xrotation Yrotation Zrotation
											End Site
											{
												OFFSET	1	0	0
											}
										}
									}
								}
							}
						}
					}
					JOINT right_clavicle
					{
						OFFSET	43.2	22.4	-70.8
						CHANNELS 3  Xrotation Yrotation Zrotation
						JOINT right_shoulder
						{
							OFFSET	93.9	-5.79999	48.7
							CHANNELS 3  Xrotation Yrotation Zrotation
							JOINT right_elbow
							{
								OFFSET	291.4	-30.8	15.2
								CHANNELS 3  Xrotation Yrotation Zrotation
								JOINT right_lowarm_twist
								{
									OFFSET	110.7	-3.89999	13.6
									CHANNELS 3  Xrotation Yrotation Zrotation
									JOINT right_hand
									{
										OFFSET	110.7	-3.89999	13.6
										CHANNELS 3  Xrotation Yrotation Zrotation
										JOINT right_ee
										{
											OFFSET	80.8	-5.10001	12.1
											CHANNELS 3  Xrotation Yrotation Zrotation
											End Site
											{
												OFFSET	1	0	0
											}
										}
									}
								}
							}
						}
					}
				}
			}
		}
	}
	JOINT left_hip
	{
		OFFSET	-82.8	-127.5	0.300001
		CHANNELS 3  Xrotation Yrotation Zrotation
		JOINT left_knee
		{
			OFFSET	-28.2	-396.7	2.2
			CHANNELS 3  Xrotation Yrotation Zrotation
			JOINT left_ankle
			{
				OFFSET	-11.7	-411.3	35.4
				CHANNELS 3  Xrotation Yrotation Zrotation
				JOINT left_toes
				{
					OFFSET	0	-60	-88.6
					CHANNELS 3  Xrotation Yrotation Zrotation
					JOINT left_foot_ee
					{
						OFFSET	-22.5	-16.5	-42.2
						CHANNELS 3  Xrotation Yrotation Zrotation
						End Site
						{
							OFFSET	1	0	0
						}
					}
				}
			}
		}
	}
	JOINT right_hip
	{
		OFFSET	82.8	-127.5	0.300001
		CHANNELS 3  Xrotation Yrotation Zrotation
		JOINT right_knee
		{
			OFFSET	28.2	-396.7	2.2
			CHANNELS 3  Xrotation Yrotation Zrotation
			JOINT right_ankle
			{
				OFFSET	11.7	-411.3	35.4
				CHANNELS 3  Xrotation Yrotation Zrotation
				JOINT right_toes
				{
					OFFSET	0	-60	-88.6
					CHANNELS 3  Xrotation Yrotation Zrotation
					JOINT right_foot_ee
					{
						OFFSET	22.5	-16.5	-42.2
						CHANNELS 3  Xrotation Yrotation Zrotation
						End Site
						{
							OFFSET	1	0	0
						}
					}
				}
			}
		}
	}
}
MOTION
Frames: 8
Frame Time: 0.02
1940.52 688.141 -1379.45 -26.894 83.4883 23.8628 -0.59262 0.204557 -0.232534 -0.592616 0.218939 -0.219047 -0.593481 0.261816 -0.165433 -0.593444 0.232403 -0.204706 -10.6047 11.2866 -1.20723 -10.7948 22.104 1.81505 -0.0 0.0 -0.0 1.88315 23.4602 5.29417 -26.108 -19.1153 60.1813 0.639275 -17.572 0.0988059 -37.8134 -2.72167 3.89923 -0.270285 16.4537 5.0448 -0.0 0.0 -0.0 11.0615 1.60594 -21.9633 4.95565 22.4582 -58.8889 1.84461 42.4159 -0.715825 35.2831 0.126922 4.43499 2.41941 -0.744703 -16.6865 0.0 0.0 0.0 -18.7146 4.06332 5.27838 -4.50974 0.159232 0.673615 34.6744 -4.91777 -4.44094 -12.3642 0.0 0.0 -0.0 0.0 -0.0 24.1649 13.3493 3.14888 4.43507 0.207877 0.648546 -0.00253494 3.7875 -0.000379544 -15.744 0.0 0.0 0.0 0.0 0.0 
1925.32 690.089 -1387.75 -39.6637 85.0312 36.6161 -0.414503 0.0470513 -0.251088 -0.41447 0.0629332 -0.247585 -0.414733 0.115218 -0.228 -0.414797 0.0777641 -0.243335 -10.822 10.9771 -1.13563 -11.0127 21.4845 1.84113 -0.0 0.0 -0.0 2.05153 22.8614 5.49585 -26.0626 -18.1607 59.2788 0.566858 -15.6852 0.0780798 -36.9902 -2.63691 3.83622 0.107193 16.7797 7.49697 -0.0 0.0 -0.0 11.1431 1.96059 -22.1564 4.49463 21.8268 -59.1584 1.84584 42.4348 -0.71665 35.227 0.124555 4.42821 2.24226 -0.961552 -15.5406 0.0 0.0 0.0 -17.6006 0.954159 4.23468 -6.901 0.222006 1.03519 34.4176 -2.11636 -4.38134 -10.1581 0.0 0.0 -0.0 0.0 -0.0 24.0182 12.8039 3.10902 3.38298 0.154021 0.496152 -0.149293 -0.948012 -0.0220427 -16.5518 0.0 0.0 0.0 0.0 0.0 
1905.53 696.781 -1399.48 -62.7686 85.5828 59.664 -0.275394 -0.0034967 -0.249202 -0.275359 0.0123677 -0.248919 -0.275397 0.0655653 -0.240447 -0.275476 0.0267684 -0.247785 -9.87931 10.6288 -2.20391 -10.0062 21.4903 0.524424 -0.0 0.0 -0.0 2.07542 22.6829 5.52026 -26.4228 -17.4623 58.6931 0.591834 -16.3401 0.0849695 -35.8971 -2.52577 3.75069 0.549955 14.5134 9.40336 -0.0 0.0 -0.0 11.3523 2.69854 -22.6434 3.35097 20.6644 -59.1572 1.90614 43.353 -0.7577 35.7549 0.147069 4.49183 2.43929 2.79721 -15.3956 0.0 0.0 0.0 -15.5923 -1.49542 3.31947 -9.44454 0.272151 1.42226 33.8759 -0.811545 -4.31567 -8.71297 0.0 0.0 -0.0 0.0 -0.0 23.9943 12.0896 2.34003 1.1404 0.0486374 0.168237 4.12148 -7.52862 0.596772 -15.843 0.0 0.0 0.0 0.0 0.0 
1888.63 698.27 -1407.59 -75.5017 85.1885 72.7924 0.075971 -0.0833552 -0.34557 0.0760355 -0.0611969 -0.350174 0.0764485 0.013294 -0.355232 0.0762746 -0.0429747 -0.352874 -9.02165 9.64028 -2.52304 -9.08085 19.8149 -0.200047 -0.0 0.0 -0.0 1.81921 22.4603 5.14971 -26.7768 -17.0131 58.2538 0.565522 -15.65 0.077719 -34.2739 -2.3638 3.61982 0.869918 13.5535 11.0828 -0.0 0.0 -0.0 11.3731 3.34339 -22.7196 2.06431 20.8248 -59.3713 1.92254 43.5979 -0.768982 35.3093 0.128028 4.43815 2.51414 3.10835 -15.7897 0.0 0.0 0.0 -14.5275 -4.26838 1.99967 -12.2766 0.307707 1.85531 34.2531 -0.288531 -4.34858 -7.32727 0.0 0.0 -0.0 0.0 -0.0 23.4686 11.7133 1.61971 1.26823 0.054298 0.187035 6.52113 -10.2499 0.93817 -16.4004 0.0 0.0 0.0 0.0 0.0 
1870.85 701.706 -1415.37 -84.4737 85.1382 82.0987 0.171032 0.0129742 -0.330936 0.171093 0.0340061 -0.32944 0.170916 0.101548 -0.315238 0.170781 0.0504881 -0.32732 -8.9288 9.10193 -3.44747 -8.96131 19.4385 -1.2581 -0.0 0.0 -0.0 1.825 22.622 5.16707 -26.7086 -17.1211 57.2905 0.522755 -14.5184 0.0665887 -33.3855 -2.27674 3.54628 1.20165 12.3769 12.7957 -0.0 0.0 -0.0 11.1174 3.89734 -22.1903 1.14556 20.3673 -59.8692 1.9738 44.3509 -0.804573 35.823 0.150015 4.50002 2.616 4.10939 -16.0851 0.0 0.0 0.0 -13.2288 -6.0844 1.29238 -14.0677 0.319129 2.12986 34.7022 0.985203 -4.38357 -6.59738 0.0 0.0 -0.0 0.0 -0.0 22.5396 11.2429 0.886465 0.950898 0.0403228 0.140347 9.81325 -14.3087 1.40453 -17.1094 0.0 0.0 0.0 0.0 0.0 
1853.53 705.31 -1421.78 -89.459 85.0825 87.5498 0.298541 0.0601627 -0.374052 0.298615 0.0838425 -0.369466 0.298086 0.157835 -0.344416 0.297935 0.101461 -0.365021 -8.17188 8.56832 -2.71268 -8.18007 17.9113 -0.784265 -0.0 0.0 -0.0 1.64095 22.2679 4.88777 -26.1941 -16.7801 57.4664 0.50475 -14.0385 0.062148 -32.141 -2.15674 3.44103 1.68408 11.6788 15.7123 -0.0 0.0 -0.0 11.0555 4.24246 -22.0694 -0.420284 19.6849 -59.9888 1.99588 44.6695 -0.820054 35.527 0.137278 4.46439 2.85054 5.49653 -17.1455 0.0 0.0 0.0 -12.1857 -7.72253 0.62933 -16.3499 0.321241 2.47999 37.0099 3.69932 -4.59127 -5.66174 0.0 0.0 -0.0 0.0 -0.0 21.8124 11.0212 -0.590788 0.676257 0.0284371 0.0998789 12.4895 -16.9826 1.78265 -17.3236 0.0 0.0 0.0 0.0 0.0 
1833.76 703.451 -1427.58 -91.6554 85.2989 90.2641 0.368252 0.0283834 -0.425122 0.368351 0.0553772 -0.422455 0.367967 0.140352 -0.402288 0.367748 0.0750576 -0.419405 -8.25934 7.31356 -3.53886 -8.24584 16.1476 -1.87455 -0.0 0.0 -0.0 1.34722 22.9239 4.52115 -25.5967 -16.6855 57.8111 0.525291 -14.5859 0.067226 -30.7221 -2.02276 3.31789 2.19815 10.8271 18.8647 -0.0 0.0 -0.0 10.9789 4.84494 -21.9235 -1.27828 19.3144 -60.5916 1.99422 44.6457 -0.818889 34.7572 0.105014 4.37143 2.71849 5.05273 -16.4055 0.0 0.0 0.0 -12.022 -8.58918 0.0070397 -18.735 0.308547 2.84569 39.9355 6.74649 -4.85453 -4.27177 0.0 0.0 -0.0 0.0 -0.0 19.0109 10.9985 -0.815545 1.91615 0.0836358 0.282123 16.648 -18.2149 2.34842 -17.381 0.0 0.0 0.0 0.0 0.0 
1816.23 705.9 -1433.97 -90.0 85.7739 90.0 0.1989 -0.0442094 -0.503693 0.199041 -0.0120689 -0.505485 0.199207 0.0927161 -0.497056 0.198862 0.0130529 -0.50546 -8.21593 6.69712 -2.90104 -8.20967 14.5491 -1.38632 -0.0 0.0 -0.0 1.41123 23.0668 4.61971 -24.9628 -16.8967 57.647 0.517131 -14.3688 0.0651861 -29.5754 -1.91674 3.216 2.8406 9.44583 22.8377 -0.0 0.0 -0.0 11.0178 5.2847 -22.0208 -2.06993 18.8217 -60.5 2.04276 45.3342 -0.8532 33.7591 0.0650489 4.25027 2.96962 5.97045 -17.7827 0.0 0.0 0.0 -11.1111 -9.59053 -0.503283 -20.6111 0.287873 3.13281 41.3386 9.41099 -4.98771 -3.30306 0.0 0.0 -0.0 0.0 -0.0 18.3932 11.0968 -1.91864 0.91092 0.038581 0.134459 19.3063 -18.1894 2.69374 -17.6722 0.0 0.0 0.0 0.0 0.0 
